<svg id="visual" viewBox="0 0 960 100" width="960" height="100" xmlns="http://www.w3.org/2000/svg" xmlns:xlink="http://www.w3.org/1999/xlink" version="1.1"><rect x="0" y="0" width="960" height="100" fill="#2f2f3f"></rect><path d="M0 46L26.7 46.5C53.3 47 106.7 48 160 54.3C213.3 60.7 266.7 72.3 320 69.5C373.3 66.7 426.7 49.3 480 36.2C533.3 23 586.7 14 640 22C693.3 30 746.7 55 800 66.8C853.3 78.7 906.7 77.3 933.3 76.7L960 76L960 101L933.3 101C906.7 101 853.3 101 800 101C746.7 101 693.3 101 640 101C586.7 101 533.3 101 480 101C426.7 101 373.3 101 320 101C266.7 101 213.3 101 160 101C106.7 101 53.3 101 26.7 101L0 101Z" fill="#23232e" stroke-linecap="round" stroke-linejoin="miter"></path></svg>